<svg xmlns="http://www.w3.org/2000/svg" width="48" height="43.469" viewBox="0 0 48 43.469">
  <defs>
    <style>
      .cls-1 {
        fill: #828c8e;
        fill-rule: evenodd;
      }
    </style>
  </defs>
  <path id="clip" class="cls-1" d="M1180.05,871.451a13.505,13.505,0,0,0-19.09,0l-21.89,21.6a10.495,10.495,0,1,0,14.85,14.834l21.88-21.6a7.494,7.494,0,0,0-10.6-10.6l-16.46,16.434a1.5,1.5,0,1,0,2.13,2.121l16.45-16.436a4.5,4.5,0,0,1,6.36,6.358l-21.88,21.6a7.5,7.5,0,1,1-10.61-10.6l21.67-21.391a10.495,10.495,0,0,1,14.85,14.833l-16.24,16.222a1.5,1.5,0,1,0,2.12,2.119l16.46-16.434A13.479,13.479,0,0,0,1180.05,871.451Z" transform="translate(-1136 -867.5)"/>
</svg>
