<svg xmlns="http://www.w3.org/2000/svg" width="48" height="45" viewBox="0 0 48 45">
  <defs>
    <style>
      .cls-1 {
        fill: #828c8e;
        fill-rule: evenodd;
      }
    </style>
  </defs>
  <path id="note" class="cls-1" d="M1183.12,877.379l-9-9a2.987,2.987,0,0,0-2.12-.878h-31.5a4.505,4.505,0,0,0-4.5,4.5v36a4.505,4.505,0,0,0,4.5,4.5h39a4.505,4.505,0,0,0,4.5-4.5V879.5A3.01,3.01,0,0,0,1183.12,877.379ZM1181,908a1.5,1.5,0,0,1-1.5,1.5h-39a1.5,1.5,0,0,1-1.5-1.5V872a1.5,1.5,0,0,1,1.5-1.5h30v6h0a4.5,4.5,0,0,0,4.5,4.5h6v27Zm-4.5-28.5H1175a3,3,0,0,1-3-3h0v-6l9,9h-4.5Zm-17.25-1.5h7.5a0.75,0.75,0,0,0,0-1.5h-7.5A0.75,0.75,0,0,0,1159.25,878Zm0,4.5h7.5a0.75,0.75,0,0,0,0-1.5h-7.5A0.75,0.75,0,0,0,1159.25,882.5Zm-0.75,3.75a0.753,0.753,0,0,0,.75.75h18a0.75,0.75,0,0,0,0-1.5h-18A0.752,0.752,0,0,0,1158.5,886.25Zm18.75,8.25h-34.5a0.751,0.751,0,0,0,0,1.5h34.5A0.751,0.751,0,0,0,1177.25,894.5Zm0,4.5h-34.5a0.751,0.751,0,0,0,0,1.5h34.5A0.751,0.751,0,0,0,1177.25,899Zm0,4.5h-34.5a0.75,0.75,0,1,0,0,1.5h34.5A0.75,0.75,0,1,0,1177.25,903.5Zm0-13.5h-34.5a0.75,0.75,0,0,0,0,1.5h34.5A0.75,0.75,0,0,0,1177.25,890Zm-33.75-3H1154a1.5,1.5,0,0,0,1.5-1.5v-9a1.5,1.5,0,0,0-1.5-1.5h-10.5a1.5,1.5,0,0,0-1.5,1.5v9A1.5,1.5,0,0,0,1143.5,887Zm1.5-9h7.5v6H1145v-6Z" transform="translate(-1136 -867.5)"/>
</svg>
