<svg xmlns="http://www.w3.org/2000/svg" width="45" height="48" viewBox="0 0 45 48">
  <defs>
    <style>
      .cls-1 {
        fill: #828c8e;
        fill-rule: evenodd;
      }
    </style>
  </defs>
  <path id="photo" class="cls-1" d="M1176.5,866h-33a6,6,0,0,0-6,6v36a6,6,0,0,0,6,6h33a6,6,0,0,0,6-6V872A6,6,0,0,0,1176.5,866Zm3,42a3.008,3.008,0,0,1-3,3h-33a3.008,3.008,0,0,1-3-3V872a3.006,3.006,0,0,1,3-3h33a3.006,3.006,0,0,1,3,3v36Zm-4.5-36h-30a1.5,1.5,0,0,0-1.5,1.5v27a1.5,1.5,0,0,0,1.5,1.5h30a1.5,1.5,0,0,0,1.5-1.5v-27A1.5,1.5,0,0,0,1175,872Zm0,1.5v20.8l-4.87-5.3a1.52,1.52,0,0,0-1.13-.508,1.482,1.482,0,0,0-1.12.508l-3.91,4.426-11.84-13.426a1.516,1.516,0,0,0-1.13-.508,1.479,1.479,0,0,0-1.12.508L1145,885.63V873.5h30Zm-30,14.4,6-6.9,12.1,13.714,0.87,0.988,4.14,4.8H1145V887.9Zm25.11,12.6-5.14-5.933L1169,890l6,6.569V900.5h-4.89Zm-4.11-15a4.5,4.5,0,1,0-4.5-4.5A4.5,4.5,0,0,0,1166,885.5Zm0-7.5a3,3,0,1,1-3,3A3.006,3.006,0,0,1,1166,878Z" transform="translate(-1137.5 -866)"/>
</svg>
