<svg xmlns="http://www.w3.org/2000/svg" width="48.03" height="48" viewBox="0 0 48.03 48">
  <defs>
    <style>
      .cls-1 {
        fill: #828c8e;
        fill-rule: evenodd;
      }
    </style>
  </defs>
  <path id="sound" class="cls-1" d="M1176.49,887.006h0a0.756,0.756,0,0,0,.75.744,0.746,0.746,0,0,0,.75-0.75v-0.012a15,15,0,0,0-14.97-14.979,0.288,0.288,0,0,0-.04-0.009,0.75,0.75,0,0,0,0,1.5v0.006A13.52,13.52,0,0,1,1176.49,887.006Zm-26.84-19.687a4.5,4.5,0,0,0-7.69,3.181v20.637l-4.69,4.682a4.494,4.494,0,0,0,0,6.363l10.51,10.5a4.507,4.507,0,0,0,6.37,0l4.69-4.682h20.65a4.5,4.5,0,0,0,3.19-7.682Zm7.07,38.56-4.69,4.682a1.5,1.5,0,0,1-2.12,0l-10.51-10.5a1.5,1.5,0,0,1,0-2.12l4.68-4.683c0.01-.013.02-0.032,0.03-0.046l12.65,12.638C1156.75,905.861,1156.73,905.866,1156.72,905.879Zm2.12-.879a3,3,0,0,0-.67.133l-13.34-13.327a3.057,3.057,0,0,0,.13-0.669V873.068L1176.93,905h-18.09Zm22.04-.926a1.5,1.5,0,0,1-1.39.926h-0.44l-34.09-34.053V870.5a1.5,1.5,0,0,1,.93-1.385,1.491,1.491,0,0,1,1.63.323l33.04,33A1.5,1.5,0,0,1,1180.88,904.074ZM1162.98,869v0.006a18.034,18.034,0,0,1,18.02,18h0a1.5,1.5,0,0,0,3-.006v-0.012a21.01,21.01,0,0,0-20.98-20.979,0.288,0.288,0,0,0-.04-0.009A1.5,1.5,0,0,0,1162.98,869Z" transform="translate(-1135.97 -866)"/>
</svg>
