<svg xmlns="http://www.w3.org/2000/svg" width="48.03" height="37.5" viewBox="0 0 48.03 37.5">
  <defs>
    <style>
      .cls-1 {
        fill: #828c8e;
        fill-rule: evenodd;
      }
    </style>
  </defs>
  <path id="tv" class="cls-1" d="M1169.23,877.436a60.37,60.37,0,0,0-24.52,0,1.509,1.509,0,0,0-1.12,1,30.937,30.937,0,0,0,0,19.8,1.509,1.509,0,0,0,1.12,1,60.37,60.37,0,0,0,24.52,0,1.507,1.507,0,0,0,1.13-1,31.072,31.072,0,0,0,0-19.8A1.507,1.507,0,0,0,1169.23,877.436Zm-0.3,20.337a58.854,58.854,0,0,1-23.91,0,29.3,29.3,0,0,1,0-18.867,58.819,58.819,0,0,1,23.91,0A29.437,29.437,0,0,1,1168.93,897.773Zm13.34-23.792a3,3,0,0,0-2.56-2.284,163.284,163.284,0,0,0-39.47,0,3.009,3.009,0,0,0-2.56,2.284,62.232,62.232,0,0,0,0,29.039,3.01,3.01,0,0,0,2.56,2.284c3.16,0.382,6.33.663,9.51,0.862a0.485,0.485,0,0,0-.28.334c0,0.829,4.7,1.5,10.51,1.5s10.51-.671,10.51-1.5a0.485,0.485,0,0,0-.28-0.334c3.17-.2,6.35-0.48,9.5-0.862a3,3,0,0,0,2.56-2.284A61.969,61.969,0,0,0,1182.27,873.981Zm-2.92,28.344a160.4,160.4,0,0,1-38.75,0,59,59,0,0,1,0-27.65,160.4,160.4,0,0,1,38.75,0A58.743,58.743,0,0,1,1179.35,902.325Zm-3.61-19.825a2.25,2.25,0,1,0-2.25-2.25A2.246,2.246,0,0,0,1175.74,882.5Zm0-3a0.75,0.75,0,1,1-.75.75A0.747,0.747,0,0,1,1175.74,879.5Zm1.5,18h-4.5a0.75,0.75,0,1,0,0,1.5h4.5A0.75,0.75,0,0,0,1177.24,897.5Zm1.5-4.5h-4.5a0.75,0.75,0,1,0,0,1.5h4.5A0.75,0.75,0,1,0,1178.74,893Zm0-4.5h-4.5a0.75,0.75,0,1,0,0,1.5h4.5A0.75,0.75,0,1,0,1178.74,888.5Zm-22.52-6.293-6.88.539a1.062,1.062,0,0,0-.87.826l-0.46,4.18a0.708,0.708,0,0,0,.71.748,0.794,0.794,0,0,0,.78-0.75l0.25-2.842a0.989,0.989,0,0,1,.84-0.818l5.63-.386a0.779,0.779,0,0,0,.75-0.776A0.714,0.714,0,0,0,1156.22,882.207Z" transform="translate(-1135.97 -870.5)"/>
</svg>
